<svg width="69" height="21" fill="none" xmlns="http://www.w3.org/2000/svg"><g id="Arrows" opacity=".25" fill="#fff"><path id="Shape" d="M8.778.563L.564 8.713a1.92 1.92 0 000 2.72l8.214 8.155a1.958 1.958 0 002.745 0 1.922 1.922 0 000-2.719l-4.805-4.767h15.414a2.012 2.012 0 100-4.027H6.69l4.834-4.792a1.92 1.92 0 000-2.718A1.953 1.953 0 008.778.563z"/><path id="Shape Copy" d="M59.867 19.587l8.213-8.15a1.92 1.92 0 000-2.72L59.867.562a1.958 1.958 0 00-2.746 0 1.922 1.922 0 000 2.719l4.805 4.767H46.512a2.012 2.012 0 100 4.027h15.444l-4.835 4.792a1.92 1.92 0 000 2.718 1.953 1.953 0 002.746.002z"/></g></svg>